<svg width="24" height="24" viewBox="0 0 24 24" fill="none" xmlns="http://www.w3.org/2000/svg">
<path d="M19.3853 7.31871C19.4558 7.21339 19.4909 7.08554 19.4765 6.95787C19.4621 6.83025 19.4002 6.71404 19.3031 6.63365C19.2059 6.55327 19.0802 6.51425 18.9521 6.52404C18.824 6.53378 18.705 6.59228 18.6147 6.68129C18.6147 6.68129 18.6147 6.68129 18.6147 6.68129C18.3781 6.91507 18.1427 7.14992 17.9086 7.38582C15.8017 9.509 13.7989 11.7182 11.9001 14.0135C11.2523 14.7965 10.6166 15.5896 9.99308 16.3926L11.4197 16.3454C10.0272 14.9609 8.59216 13.6167 7.11453 12.3128C6.86534 12.0929 6.61494 11.8741 6.36332 11.6565C6.26739 11.5737 6.14478 11.5232 6.0163 11.5219C5.88788 11.5206 5.765 11.5679 5.67336 11.6545C5.58172 11.7412 5.52766 11.8612 5.52175 11.9895C5.51579 12.1178 5.55934 12.2431 5.63668 12.3435C5.63668 12.3435 5.63668 12.3435 5.63668 12.3435C5.83985 12.6069 6.04423 12.8692 6.24982 13.1303C7.46893 14.6787 8.73061 16.1868 10.0349 17.6546C10.4644 18.0818 11.0899 18.0858 11.4615 17.6074C12.1335 16.8444 12.7933 16.0714 13.4411 15.2883C15.3399 12.9931 17.1347 10.6117 18.8255 8.14436C19.0134 7.87021 19.2 7.59499 19.3853 7.31871Z" fill="#53FF76"/>
</svg>
