<svg width="28" height="28" viewBox="0 0 28 28" fill="none" xmlns="http://www.w3.org/2000/svg">
<path d="M19.8917 22.16C18.7484 23.2683 17.5 23.0933 16.2984 22.5683C15.0267 22.0317 13.86 22.0083 12.5184 22.5683C10.8384 23.2917 9.9517 23.0817 8.94836 22.16C3.25503 16.2917 4.09503 7.355 10.5584 7.02833C12.1334 7.11 13.23 7.89167 14.1517 7.96167C15.5284 7.68167 16.8467 6.87667 18.3167 6.98167C20.0784 7.12167 21.4084 7.82167 22.2834 9.08167C18.6434 11.2633 19.5067 16.0583 22.8434 17.4C22.1784 19.15 21.315 20.8883 19.88 22.1717L19.8917 22.16ZM14.035 6.95833C13.86 4.35667 15.9717 2.21 18.3984 2C18.7367 5.01 15.6684 7.25 14.035 6.95833Z" fill="#00000A"/>
</svg>
